:SAMPLES-PER-SECOND 30
:FULLY-SPECIFIED
:DEGREES
31
root  74.8583 40.1771 -1.11594 -142.251 -88.9171 140.85
RightUpLeg  0.746438 -10.3723 -6.1799
RightLeg  8.82221 -2.48684 3.56977
RightFoot  -6.9479 -0.066067 0.475177
RightToes  0.00048216 0.542163 -0.142577
Spine  4.07366 0.437735 -1.66517
Spine1  6.53926 0.375955 0.426342
HEad  3.76471 -1.64497 -0.0785945
LeftShoulder1  2.26389 -4.65094 -21.317
LeftArm  -31.7181 21.363 -16.2377
LeftForeArm  33.4478 -21.336 -2.53628
LeftHand  -0.25398 0.0180481 5.50724
RightShoulder  1.5343 2.74823 17.9691
RightArm  -18.5822 -14.805 15.0973
RightForeArm  2.50861 19.6594 4.40672
RightHand  -2.09329 6.10089 -21.304
LeftUpLeg  2.20943 5.91838 0.0572411
LeftLeg  6.90947 25.3523 -2.26549
LeftFoot  -10.9206 0.0680598 -0.722686
LeftToes  1.06247e-005 4.65855e-005 -8.185e-006
32
root  74.7757 40.0705 -0.907599 -106.859 -89.1845 105.191
RightUpLeg  -0.268347 -12.8106 -6.30871
RightLeg  11.8523 -0.813417 2.32536
RightFoot  -8.01183 -0.0744739 0.727179
RightToes  0.00048216 0.542163 -0.142577
Spine  4.05721 0.0702542 -2.15733
Spine1  7.81928 -0.123675 0.651066
HEad  4.24206 -1.82617 0.127042
LeftShoulder1  2.60278 -5.03539 -24.1825
LeftArm  -32.1522 21.6519 -17.7993
LeftForeArm  35.146 -22.7981 -2.98588
LeftHand  -0.25398 0.0180481 5.50724
RightShoulder  1.87654 3.49929 20.4096
RightArm  -16.4444 -16.104 16.8723
RightForeArm  4.31622 22.3131 4.61661
RightHand  -1.79998 5.16682 -19.9642
LeftUpLeg  2.16148 6.07956 -0.180998
LeftLeg  7.78722 24.1684 -2.15274
LeftFoot  -10.6863 0.0686018 -0.741955
LeftToes  1.06247e-005 4.65855e-005 -8.185e-006
33
root  74.7171 39.9325 -0.678295 -70.52 -88.9719 68.4693
RightUpLeg  -2.21753 -14.7416 -6.30998
RightLeg  16.4817 0.760614 0.582963
RightFoot  -8.80797 -0.110024 2.32386
RightToes  0.00048216 0.542163 -0.142577
Spine  4.52553 -0.121361 -2.72025
Spine1  8.99742 -0.485857 0.883046
HEad  4.11273 -2.28943 0.395548
LeftShoulder1  3.09569 -5.71569 -27.4056
LeftArm  -31.0466 21.1715 -19.2958
LeftForeArm  35.2601 -22.6476 -2.93575
LeftHand  -0.25398 0.0180481 5.50724
RightShoulder  2.20262 4.07818 22.8228
RightArm  -14.8432 -17.3946 18.7922
RightForeArm  7.12836 24.4355 4.85061
RightHand  -1.45031 4.0894 -17.9547
LeftUpLeg  1.94485 6.25985 -0.76119
LeftLeg  9.35046 23.1966 -1.5416
LeftFoot  -11.5313 0.0683769 -0.446568
LeftToes  1.06247e-005 4.65855e-005 -8.185e-006
34
root  74.6812 39.7805 -0.443647 -80.8355 -88.7491 78.1759
RightUpLeg  -5.22484 -12.1208 -6.47309
RightLeg  23.0131 -1.4613 -0.993608
RightFoot  -8.08772 -0.220721 5.56928
RightToes  0.00048216 0.542163 -0.142577
Spine  6.00759 0.061166 -3.01846
Spine1  9.4201 -0.39567 0.75057
HEad  3.83354 -2.44093 0.578283
LeftShoulder1  3.70885 -6.6287 -30.5117
LeftArm  -28.2933 20.276 -20.8023
LeftForeArm  34.1099 -21.0002 -2.52628
LeftHand  -0.25398 0.0180481 5.50724
RightShoulder  2.4634 4.39906 25.048
RightArm  -13.4275 -18.6063 21.211
RightForeArm  10.5103 25.6891 4.95586
RightHand  -1.10908 2.93757 -15.6555
LeftUpLeg  2.07088 6.64259 -1.25732
LeftLeg  10.9363 23.0731 -0.963039
LeftFoot  -12.991 0.0681792 -0.639233
LeftToes  1.06247e-005 4.65855e-005 -8.185e-006
35
root  74.6382 39.6562 -0.216096 -108.576 -88.5686 105.167
RightUpLeg  -9.09579 -8.78977 -6.67343
RightLeg  30.9162 -4.40415 -3.08982
RightFoot  -4.89886 -0.477058 7.92478
RightToes  0.00048216 0.542163 -0.142577
Spine  7.90905 0.273024 -2.86961
Spine1  9.64928 -0.109521 0.108425
HEad  3.54954 -1.81892 0.579159
LeftShoulder1  4.31796 -7.50641 -33.1508
LeftArm  -24.5108 19.152 -22.4586
LeftForeArm  32.1877 -18.1574 -2.02868
LeftHand  -0.25398 0.0180481 5.50724
RightShoulder  2.74093 4.80667 26.9284
RightArm  -12.2797 -19.4765 24.5223
RightForeArm  13.3321 25.7608 4.82047
RightHand  -0.791035 1.58286 -13.3101
LeftUpLeg  2.67769 7.03076 -1.53103
LeftLeg  11.8723 23.3468 -0.804437
LeftFoot  -14.0771 0.0594186 -1.06009
LeftToes  1.06247e-005 4.65855e-005 -8.185e-006
36
root  74.5339 39.5729 -0.00351267 -123.392 -88.2597 119.364
RightUpLeg  -13.2738 -6.73374 -6.64352
RightLeg  38.4003 -6.07158 -5.37953
RightFoot  -0.556991 -0.689468 7.33702
RightToes  0.00048216 0.542163 -0.142577
Spine  9.30382 0.12517 -2.67622
Spine1  10.3702 -0.134975 -0.587966
HEad  3.25619 -0.852781 0.330204
LeftShoulder1  4.79509 -8.07713 -35.3142
LeftArm  -21.0891 17.716 -24.2883
LeftForeArm  31.0336 -14.3931 -1.88633
LeftHand  -0.25398 0.0180481 5.50724
RightShoulder  3.05838 5.41591 28.2828
RightArm  -11.5743 -19.8679 28.744
RightForeArm  15.2322 24.6753 4.47863
RightHand  -0.513647 0.0271332 -11.0269
LeftUpLeg  3.40632 7.20469 -1.80922
LeftLeg  12.2702 23.5926 -0.848473
LeftFoot  -14.6399 0.0583221 -1.03069
LeftToes  1.06247e-005 4.65855e-005 -8.185e-006
37
root  74.3258 39.5223 0.195018 -123.478 -88.2054 119.082
RightUpLeg  -16.8905 -5.94092 -6.23455
RightLeg  43.3852 -5.85409 -6.16613
RightFoot  2.20566 -0.597224 5.12089
RightToes  0.00048216 0.542163 -0.142577
Spine  10.1669 -0.266739 -2.67224
Spine1  11.2003 -0.507792 -0.863047
HEad  3.25511 -0.205808 -0.321122
LeftShoulder1  5.16843 -8.39371 -37.2918
LeftArm  -18.8546 16.0706 -26.0379
LeftForeArm  31.5548 -10.1256 -2.09855
LeftHand  -0.25398 0.0180481 5.50724
RightShoulder  3.3011 5.87286 29.226
RightArm  -11.1864 -20.1164 33.2414
RightForeArm  16.8538 22.8795 4.06349
RightHand  -0.323929 -1.2997 -9.01516
LeftUpLeg  4.10825 7.13859 -2.10554
LeftLeg  12.3994 23.786 -0.820516
LeftFoot  -15.1363 0.0645455 -0.789904
LeftToes  1.06247e-005 4.65855e-005 -8.185e-006
38
root  74.0144 39.5089 0.383996 -123.391 -88.5057 118.77
RightUpLeg  -19.3436 -6.1132 -5.21311
RightLeg  44.6728 -4.43873 -5.0029
RightFoot  2.64052 -0.478274 4.0394
RightToes  0.00048216 0.542163 -0.142577
Spine  11.143 -0.583561 -2.57106
Spine1  11.3208 -0.906786 -0.663127
HEad  3.78782 -0.00825677 -1.30699
LeftShoulder1  5.5852 -8.76042 -39.3011
LeftArm  -17.4195 14.7664 -27.5134
LeftForeArm  32.3668 -6.23633 -2.21064
LeftHand  -0.25398 0.0180481 5.50724
RightShoulder  3.41512 5.98227 30.0356
RightArm  -11.1015 -20.7821 37.2711
RightForeArm  18.9548 20.9718 3.84005
RightHand  -0.22134 -2.08707 -7.36046
LeftUpLeg  5.03886 6.9176 -2.10452
LeftLeg  12.0643 23.913 -0.903329
LeftFoot  -15.6536 0.0576572 -0.957522
LeftToes  1.06247e-005 4.65855e-005 -8.185e-006
39
root  73.632 39.5041 0.552655 -128.658 -88.9836 123.934
RightUpLeg  -20.7688 -6.96883 -3.65537
RightLeg  42.4554 -3.25879 -3.48437
RightFoot  2.187 -0.554307 4.79777
RightToes  0.00048216 0.542163 -0.142577
Spine  12.4496 -0.761785 -2.43697
Spine1  10.5747 -1.2464 -0.1422
HEad  4.43511 0.310832 -2.21334
LeftShoulder1  6.11868 -9.35179 -41.2457
LeftArm  -16.8436 14.3959 -28.771
LeftForeArm  32.5299 -3.89944 -2.19521
LeftHand  -0.25398 0.0180481 5.50724
RightShoulder  3.50245 6.04582 30.7178
RightArm  -10.9953 -22.0752 40.6305
RightForeArm  21.0747 19.4813 3.82727
RightHand  -0.158365 -2.61728 -5.945
LeftUpLeg  6.00827 6.71144 -1.80447
LeftLeg  11.602 23.8367 -1.11993
LeftFoot  -16.096 0.0396144 -1.37222
LeftToes  1.06247e-005 4.65855e-005 -8.185e-006
40
root  73.1988 39.4789 0.696034 -121.413 -89.4549 116.858
RightUpLeg  -21.6306 -8.49272 -1.80291
RightLeg  37.6072 -3.26977 -2.94581
RightFoot  1.74417 -0.664172 5.88879
RightToes  0.00048216 0.542163 -0.142577
Spine  13.5758 -0.968481 -2.6104
Spine1  9.67693 -1.71536 0.656052
HEad  4.67458 0.822935 -2.77855
LeftShoulder1  6.67698 -10.0281 -42.88
LeftArm  -16.8712 14.8281 -29.9827
LeftForeArm  32.3026 -3.72526 -2.22575
LeftHand  -0.25398 0.0180481 5.50724
RightShoulder  3.65002 6.34535 31.107
RightArm  -10.3603 -23.5872 43.4489
RightForeArm  22.5187 18.6757 3.91601
RightHand  -0.11227 -3.15228 -4.76979
LeftUpLeg  6.59888 6.609 -1.53404
LeftLeg  11.4982 23.5887 -1.24311
LeftFoot  -16.537 0.031859 -1.4875
LeftToes  1.06247e-005 4.65855e-005 -8.185e-006
41
root  72.6988 39.4316 0.827677 -70.9312 -89.6667 66.8492
RightUpLeg  -22.1076 -10.78 0.206991
RightLeg  30.916 -3.95502 -2.78595
RightFoot  1.00638 -0.685258 6.39167
RightToes  0.00048216 0.542163 -0.142577
Spine  13.9876 -1.26942 -3.09262
Spine1  9.46611 -2.34919 1.65224
HEad  4.2382 1.57423 -3.13097
LeftShoulder1  7.10782 -10.5538 -44.0068
LeftArm  -16.9493 15.2232 -31.1862
LeftForeArm  32.5688 -5.02046 -2.41479
LeftHand  -0.25398 0.0180481 5.50724
RightShoulder  3.81753 6.74135 31.3125
RightArm  -8.84934 -24.6589 45.6233
RightForeArm  23.4534 18.4441 4.0346
RightHand  -0.0869751 -3.48314 -3.89739
LeftUpLeg  6.92638 6.5071 -1.4887
LeftLeg  11.5094 23.2918 -1.31145
LeftFoot  -17.1592 0.0233622 -1.56056
LeftToes  1.06247e-005 4.65855e-005 -8.185e-006
42
root  72.0985 39.3586 0.958849 -27.2526 -89.3307 23.7926
RightUpLeg  -22.244 -14.2491 2.49799
RightLeg  23.1182 -3.4344 -1.9788
RightFoot  0.161089 -0.671549 6.66914
RightToes  0.00048216 0.542163 -0.142577
Spine  13.7502 -1.55649 -3.65504
Spine1  9.94436 -2.96388 2.62885
HEad  3.52545 2.19173 -3.38745
LeftShoulder1  7.34179 -10.8472 -44.5522
LeftArm  -16.6405 14.9924 -32.2647
LeftForeArm  33.7011 -6.44616 -2.75166
LeftHand  -0.25398 0.0180481 5.50724
RightShoulder  3.95433 7.01919 31.6315
RightArm  -6.48422 -25.0749 46.8561
RightForeArm  24.3279 18.4275 4.16381
RightHand  -0.0766689 -3.47368 -3.22276
LeftUpLeg  7.43899 6.30961 -1.62713
LeftLeg  11.1429 22.9438 -1.57935
LeftFoot  -17.9762 -0.018543 -2.17273
LeftToes  1.06247e-005 4.65855e-005 -8.185e-006
